<?xml version="1.0" encoding="UTF-8" standalone="no"?>
<!-- Created with Inkscape (http://www.inkscape.org/) -->

<svg
   width="210mm"
   height="297mm"
   viewBox="0 0 210 297"
   version="1.1"
   id="svg5"
   inkscape:version="1.2 (dc2aeda, 2022-05-15)"
   sodipodi:docname="лого.svg"
   xmlns:inkscape="http://www.inkscape.org/namespaces/inkscape"
   xmlns:sodipodi="http://sodipodi.sourceforge.net/DTD/sodipodi-0.dtd"
   xmlns="http://www.w3.org/2000/svg"
   xmlns:svg="http://www.w3.org/2000/svg">
  <sodipodi:namedview
     id="namedview7"
     pagecolor="#505050"
     bordercolor="#ffffff"
     borderopacity="1"
     inkscape:showpageshadow="0"
     inkscape:pageopacity="0"
     inkscape:pagecheckerboard="1"
     inkscape:deskcolor="#505050"
     inkscape:document-units="mm"
     showgrid="false"
     inkscape:zoom="0.81486395"
     inkscape:cx="471.85791"
     inkscape:cy="595.19138"
     inkscape:window-width="1440"
     inkscape:window-height="762"
     inkscape:window-x="0"
     inkscape:window-y="25"
     inkscape:window-maximized="0"
     inkscape:current-layer="layer1" />
  <defs
     id="defs2" />
  <g
     inkscape:label="Слой 1"
     inkscape:groupmode="layer"
     id="layer1">
    <path
       style="fill:#ff80e5;stroke-width:0.264583"
       id="path813"
       d="m 121.4657,153.03308 c 2.13864,-1.54279 4.78541,-2.13797 7.25833,-2.91791 3.80056,-1.19865 2.6469,-0.82622 6.51007,-2.27273 1.15135,-0.92759 2.39673,-1.74928 3.45407,-2.78275 3.48749,-3.40877 6.41123,-8.18625 8.01779,-12.77879 1.55515,-4.44558 1.40287,-5.92326 1.82255,-10.55489 -0.13661,-1.75105 -0.002,-3.54467 -0.40983,-5.25313 -0.79604,-3.33832 -2.86925,-7.32819 -5.66741,-9.46666 -10.15365,-7.759822 -26.2734,-26.491761 -43.471337,-28.520951 -2.116074,-0.249677 -4.260493,-0.09277 -6.390738,-0.139155 -2.260944,0.383654 -4.561699,0.580308 -6.782826,1.150961 -4.316759,1.109059 -9.68911,3.436779 -13.635569,5.454557 -4.055105,2.073328 -8.606301,4.803347 -12.136882,7.715862 -1.724652,1.422733 -3.226639,3.095669 -4.839959,4.643506 -1.103564,1.846889 -2.555338,3.52614 -3.310692,5.54067 -3.440454,9.17567 1.287836,18.92586 6.213197,26.48709 1.448488,2.22367 3.116551,4.29632 4.674825,6.44448 6.005571,7.74887 12.481856,15.12029 18.334598,22.98922 3.478639,4.67698 4.222165,5.90657 7.425952,10.68055 2.167178,3.51073 3.901845,6.12016 5.71251,9.80373 1.495666,3.04273 2.531581,5.07757 2.490999,8.48299 -0.04246,3.56258 -0.974563,4.69346 -2.42784,7.86987 -0.926272,1.24974 -1.744604,2.58722 -2.778821,3.74922 -4.407183,4.95167 -11.15229,8.98582 -17.498967,10.8126 -1.65894,0.4775 -3.380782,0.70049 -5.071174,1.05073 -8.674025,0.76391 -17.087082,-1.41396 -25.362479,-3.70403 -4.105486,-1.18435 -2.100138,-0.59867 -6.016548,-1.75533 0,0 32.147946,30.77599 32.147946,30.77599 v 0 c 3.623429,0.79439 1.764541,0.39825 5.577372,1.18512 8.275087,1.53605 16.684529,2.59216 25.004713,0.62209 1.75662,-0.53142 3.54659,-0.96302 5.26986,-1.59426 6.80963,-2.49441 14.16726,-6.97106 19.24559,-12.17626 1.28105,-1.31305 2.35529,-2.81306 3.53293,-4.21959 2.14969,-3.86731 3.46726,-5.25934 3.84795,-9.80019 0.15191,-1.81202 0.0767,-3.67749 -0.35672,-5.44344 -0.44406,-1.80916 -1.39767,-3.45821 -2.23644,-5.12155 -1.76998,-3.51004 -4.31385,-7.31801 -6.41089,-10.61439 -3.96854,-5.78817 -8.00134,-11.51054 -12.36399,-17.01297 -3.58314,-4.51927 -5.9395,-7.13811 -9.64521,-11.57717 -1.632206,-1.95522 -3.239981,-3.9307 -4.859969,-5.89604 -4.143894,-5.49547 -8.281498,-10.70383 -10.517984,-17.33734 -1.119169,-3.3195 -1.837119,-7.20537 -0.993474,-10.70966 0.420823,-1.74799 1.456632,-3.28762 2.184948,-4.93143 1.335119,-1.48925 2.533735,-3.11322 4.005363,-4.46774 6.205731,-5.71187 16.065276,-10.42649 24.430256,-11.51783 2.2069,-0.28792 4.44921,-0.13318 6.67382,-0.19977 2.05506,0.3494 4.15471,0.49741 6.16518,1.04818 1.9044,0.52172 6.99645,3.46234 5.51872,2.15268 -8.81419,-7.81167 -18.52192,-14.552963 -27.75729,-21.861863 -1.31942,-1.044197 2.82662,1.870239 4.00901,3.067399 3.38679,3.429103 2.78268,3.889507 3.62412,8.421558 -0.0242,1.561196 0.11101,3.133016 -0.0725,4.683576 -0.67656,5.71667 -3.65366,11.41259 -8.49014,14.67365 -0.96041,0.64757 -2.07372,1.03277 -3.11057,1.54915 -4.458387,1.22621 -10.089033,2.61575 -14.738405,1.84001 -0.365151,-0.0609 -0.702987,-0.23236 -1.054481,-0.34854 0,0 35.256466,32.08092 35.256466,32.08092 z" />
    <path
       style="fill:#ff80e5;stroke-width:0.264583"
       id="path823"
       d="m 84.645263,177.88517 c -2.217586,0.85393 -4.798004,0.0416 -6.94908,-0.61072 -0.706424,-0.30224 -1.438791,-0.54988 -2.119272,-0.9067 -0.805032,-0.42213 -3.705686,-2.35023 -4.40699,-2.82199 -2.188626,-1.47224 -4.314132,-3.02638 -6.442295,-4.58372 -2.446004,-1.86471 -1.247801,-0.94681 -3.595079,-2.75308 0,0 31.603413,32.67294 31.603413,32.67294 v 0 c 2.192877,1.55705 1.065456,0.76886 3.383894,2.36226 4.444206,2.96623 8.973266,5.97293 14.230436,7.27131 2.36307,0.51541 2.4186,0.57438 4.72333,0.90545 2.50689,0.36011 1.18059,0.11762 3.35287,0.37486 0.84943,0.10058 0.87363,0.12144 1.59816,0.28215 0,0 -35.379387,-32.19276 -35.379387,-32.19276 z" />
    <path
       style="fill:#ff80e5;stroke-width:0.264583"
       id="path825"
       d="m 80.224465,185.58471 c -2.787092,0.98706 -5.730899,0.43595 -8.556964,-0.0558 -6.472674,-1.55577 -12.398189,-4.77967 -18.143809,-8.05051 -2.978359,-1.81445 -5.881897,-3.74964 -8.685813,-5.82383 -0.875279,-0.64748 -3.467325,-2.63495 -2.596251,-1.98182 32.585078,24.43232 43.129872,32.94929 30.394804,22.70992 -3.319095,-2.74946 -6.308193,-5.86112 -9.28561,-8.96846 0,0 -40.099719,-22.08425 -40.099719,-22.08425 v 0 c 3.372661,3.3403 6.726773,6.70168 10.195701,9.9425 13.832708,12.15091 2.729103,2.49492 39.489718,30.06943 3.548745,2.66195 7.455419,4.83915 11.309303,7.01318 6.3501,3.26658 12.880191,6.46367 19.954105,7.7838 3.77205,0.61763 7.57349,0.96242 11.34246,1.58266 0,0 -35.317925,-32.13684 -35.317925,-32.13684 z" />
    <path
       style="fill:#ff80e5;stroke-width:0.264583"
       id="path829"
       d="m 124.75759,136.18626 c 0.46497,-1.03848 1.56771,-1.70153 2.4186,-2.41104 0.81501,-0.68418 1.68665,-1.29847 2.49124,-1.99464 0.7884,-0.61253 1.29524,-1.43493 1.72401,-2.32125 0.36704,-0.81747 0.51765,-1.70215 0.80933,-2.54348 0.0952,-0.38197 0.26379,-0.74391 0.51146,-1.04942 0.45003,-0.56874 0.99525,-1.05984 1.55108,-1.52266 0.45816,-0.33771 0.97252,-0.64712 1.49714,-0.87097 0.0113,0.0498 0.0545,0.10261 0.034,0.14942 -0.0831,0.19032 -0.16796,0.6583 -0.33004,0.52845 -12.44682,-9.97184 -24.55113,-20.36511 -36.950469,-30.39594 -0.101634,-0.08222 -0.175805,0.193532 -0.262691,0.291211 -0.657133,0.738751 -0.232956,0.30321 -1.064041,1.084194 -1.556798,1.391163 -3.297163,2.552824 -4.993616,3.762258 -1.541224,1.116327 -3.014924,2.314277 -4.569172,3.413537 -1.106876,0.76878 -2.249609,1.48191 -3.334996,2.28164 -0.843489,0.58331 -1.750687,1.05674 -2.588024,1.64783 -0.783548,0.49303 -1.614384,0.90337 -2.408806,1.3758 -0.762167,0.39009 -1.554655,0.72938 -2.371583,0.98708 -0.692107,0.16878 -1.395073,0.28957 -2.093137,0.43224 -0.379841,-0.01 -0.66435,0.19939 -1.005223,0.30092 -0.15216,0.0453 -0.318553,0.003 -0.47557,0.0264 0,0 36.090338,31.19444 36.090338,31.19444 v 0 c 0.472,-0.18354 0.90785,-0.30219 1.39834,-0.44641 0.84553,-0.28327 1.6903,-0.57746 2.48026,-0.99682 0.88392,-0.46362 1.7571,-0.94642 2.6179,-1.45186 0.91027,-0.48822 1.7676,-1.0605 2.61781,-1.64586 0.92919,-0.57678 1.7943,-1.23758 2.65437,-1.91255 1.08333,-0.81212 2.14932,-1.64859 3.16713,-2.54221 1.40911,-1.19888 2.84875,-2.36029 4.33787,-3.45893 1.66634,-1.28136 3.34772,-2.55094 5.14068,-3.65222 1.29005,-0.7435 0.21582,-0.15089 1.45601,-0.76834 0.1563,-0.0778 0.59474,-0.13211 0.46243,-0.24604 C 90.946805,84.833559 109.06286,80.209863 98.663251,93.501659 c -0.575122,0.543459 -1.277596,0.948459 -1.807028,1.546881 -0.660323,0.63954 -1.30389,1.293439 -1.898184,1.996064 -0.680244,0.776049 -1.316077,1.562198 -1.661745,2.552084 -0.217313,0.728292 -0.487931,1.440152 -0.58562,2.198042 -0.02524,0.31602 -0.316209,0.49709 -0.507159,0.74129 -0.650693,0.7026 -1.373487,1.33732 -2.074032,1.98883 -1.000649,0.84995 -1.953027,1.77911 -3.144591,2.3619 0,0 37.772698,29.29951 37.772698,29.29951 z" />
    <path
       style="fill:#ff80e5;stroke-width:0.264583"
       id="path1136"
       d="m 101.85558,82.395953 c -0.22508,0.458867 -0.6199,0.835464 -0.97266,1.201608 -0.16168,0.170024 -0.3245,0.335772 -0.50577,0.484577 0,0 14.08127,10.937155 14.08127,10.937155 v 0 c 0.17277,-0.194543 0.3439,-0.39047 0.51454,-0.586881 0.40344,-0.459274 0.8017,-0.925626 1.26032,-1.331743 0,0 -14.3777,-10.704716 -14.3777,-10.704716 z" />
  </g>
</svg>
